<svg width="1024" height="1024" viewBox="0 0 1024 1024" xmlns="http://www.w3.org/2000/svg">
  <defs>
    <linearGradient id="bg" x1="0" y1="0" x2="1" y2="1">
      <stop offset="0" stop-color="#f7f2ea"/>
      <stop offset="0.55" stop-color="#f6eee5"/>
      <stop offset="1" stop-color="#ece5dc"/>
    </linearGradient>
    <filter id="shadow" x="-20%" y="-20%" width="140%" height="140%">
      <feDropShadow dx="12" dy="18" stdDeviation="16" flood-color="#656d7c" flood-opacity="0.18"/>
    </filter>
    <filter id="starShadow" x="-30%" y="-30%" width="160%" height="160%">
      <feDropShadow dx="8" dy="14" stdDeviation="10" flood-color="#72678c" flood-opacity="0.25"/>
    </filter>
  </defs>
  <rect width="1024" height="1024" rx="220" fill="url(#bg)"/>
  <circle cx="140" cy="120" r="260" fill="#dce9f2" opacity="0.34"/>
  <rect x="132" y="210" width="760" height="580" rx="70" fill="#fffdf9" opacity="0.94" stroke="#d5e0e7" stroke-width="5" filter="url(#shadow)"/>
  <rect x="190" y="280" width="644" height="38" rx="19" fill="#dce9f2"/>
  <path d="M722 198 h120 a34 34 0 0 1 34 34 v136 l-60 -42 -60 42 v-136 a34 34 0 0 1 34 -34 z" fill="#dbeceb" stroke="#afd2cd" stroke-width="4"/>
  <polygon points="512,322 555,453 693,453 581,534 624,666 512,585 400,666 443,534 331,453 469,453" fill="#cab8e8" stroke="#a68fcd" stroke-width="5" filter="url(#starShadow)"/>
  <polygon points="502,374 532,464 627,464 550,520 579,611 502,555 425,611 454,520 377,464 472,464" fill="#ded3f3" opacity="0.70"/>
  <rect x="214" y="625" width="82" height="48" rx="24" fill="#f5dfde"/>
  <rect x="329" y="625" width="82" height="48" rx="24" fill="#f8efcf"/>
  <rect x="444" y="625" width="82" height="48" rx="24" fill="#dcebdd"/>
  <rect x="559" y="625" width="82" height="48" rx="24" fill="#e9e2ef"/>
  <circle cx="282" cy="424" r="15" fill="#bc968f"/>
  <circle cx="742" cy="629" r="12" fill="#bc968f"/>
  <circle cx="322" cy="719" r="9" fill="#bc968f"/>
</svg>